<svg width="22.148148" height="12.363525" viewBox="0 0 22.1481 12.3635" fill="none" xmlns="http://www.w3.org/2000/svg" xmlns:xlink="http://www.w3.org/1999/xlink">
	<desc>
			Created with Pixso.
	</desc>
	<defs/>
	<path id="Vector" d="M0 1.7C0 1.07 0.42 0.74 1.26 0.69L4.53 0.71C4.74 0.71 4.89 0.8 4.96 0.98C5.3 1.9 5.67 2.69 6.09 3.35C6.51 4.02 7.05 4.78 7.72 5.65C7.78 5.76 7.87 5.81 8.01 5.81C8.11 5.81 8.19 5.77 8.25 5.68L8.31 5.48L8.33 2.32C8.33 2.1 8.27 1.95 8.15 1.88C8.02 1.81 7.79 1.75 7.46 1.71C7.2 1.68 7.06 1.54 7.06 1.31C7.06 1.26 7.07 1.23 7.09 1.2C7.39 0.41 8.27 0.01 9.71 0.01L10.94 0C11.49 0 11.95 0.11 12.32 0.34C12.68 0.57 12.86 0.94 12.86 1.44L12.86 5.59C12.97 5.65 13.06 5.68 13.15 5.68C13.37 5.68 13.56 5.57 13.72 5.35C15.32 3.48 16.19 2.22 16.32 1.59C16.32 1.57 16.34 1.54 16.37 1.49C16.47 1.31 16.64 1.15 16.87 1.02C17.1 0.89 17.31 0.79 17.48 0.74C17.54 0.72 17.61 0.71 17.68 0.71L21.07 0.71L21.29 0.73C21.58 0.73 21.81 0.84 21.97 1.07C22.03 1.15 22.07 1.23 22.09 1.31C22.11 1.4 22.12 1.48 22.13 1.57C22.14 1.65 22.14 1.7 22.14 1.71L22.14 1.84C22.04 2.34 21.78 2.88 21.37 3.44C20.95 4.01 20.42 4.62 19.78 5.28C19.14 5.94 18.74 6.37 18.58 6.58C18.44 6.73 18.38 6.86 18.38 6.98C18.38 7.08 18.44 7.19 18.55 7.31L21.75 10.68C21.92 10.87 22.01 11.08 22.01 11.32C22.01 11.6 21.88 11.83 21.62 12.01C21.36 12.19 21.04 12.3 20.68 12.32L20.3 12.34L16.98 12.34C16.96 12.34 16.93 12.34 16.89 12.35C16.85 12.36 16.82 12.36 16.8 12.36C16.48 12.36 16.18 12.24 15.91 12.01C15.8 11.91 15.12 11.19 13.85 9.85C13.78 9.77 13.67 9.69 13.54 9.62C13.48 9.81 13.41 10.09 13.31 10.46C13.22 10.82 13.15 11.08 13.1 11.24L13.04 11.55C12.89 11.98 12.59 12.24 12.12 12.32L11.81 12.34L9.67 12.34C8.46 12.34 7.25 11.88 6.05 10.95C4.84 10.02 3.76 8.83 2.8 7.36C1.83 5.89 0.94 4.18 0.1 2.23C0.03 2.07 0 1.89 0 1.7ZM13.15 6.43C12.84 6.43 12.56 6.36 12.32 6.22C12.07 6.08 11.94 5.89 11.94 5.65L11.94 1.44C11.94 1.2 11.87 1.02 11.73 0.92C11.58 0.82 11.32 0.76 10.96 0.76L9.71 0.8C9.08 0.8 8.61 0.89 8.29 1.07C8.93 1.33 9.25 1.74 9.25 2.32L9.25 5.54C9.22 5.84 9.08 6.09 8.81 6.3C8.55 6.5 8.26 6.6 7.94 6.6C7.5 6.6 7.17 6.42 6.93 6.07C5.79 4.63 4.95 3.26 4.39 1.97L4.2 1.49L1.29 1.48C1.1 1.48 0.99 1.49 0.97 1.5C0.95 1.52 0.94 1.57 0.94 1.66C0.94 1.77 0.95 1.88 0.98 2.01L1.44 3.03C2.67 5.68 4 7.76 5.43 9.29C6.87 10.81 8.28 11.57 9.67 11.57L11.86 11.57C11.94 11.57 12.01 11.55 12.05 11.51C12.1 11.47 12.13 11.38 12.16 11.26L12.21 11.08L12.62 9.47C12.74 9.25 12.84 9.1 12.93 9.03C13.09 8.9 13.28 8.83 13.5 8.83C13.85 8.83 14.21 9.01 14.57 9.36L16.43 11.33C16.55 11.49 16.67 11.57 16.8 11.57L20.41 11.57C20.85 11.57 21.07 11.48 21.07 11.3C21.07 11.24 21.05 11.18 21.01 11.11L17.83 7.8C17.58 7.55 17.46 7.27 17.46 6.98C17.46 6.69 17.58 6.41 17.81 6.14C18 5.9 18.37 5.49 18.92 4.92C19.46 4.36 19.94 3.83 20.35 3.33C20.76 2.84 21.03 2.39 21.16 1.99L21.22 1.75C21.21 1.73 21.2 1.69 21.2 1.63C21.2 1.58 21.19 1.53 21.18 1.49L17.74 1.49C17.53 1.57 17.35 1.68 17.22 1.82L17.09 2.17C16.72 3.01 15.77 4.31 14.22 6.07C13.91 6.31 13.56 6.43 13.15 6.43Z" fill="#666666" fill-opacity="1.000000" fill-rule="nonzero"/>
</svg>
