<svg width="15.843750" height="15.843750" viewBox="0 0 15.8438 15.8438" fill="none" xmlns="http://www.w3.org/2000/svg" xmlns:xlink="http://www.w3.org/1999/xlink">
	<desc>
			Created with Pixso.
	</desc>
	<defs/>
	<path id="Vector" d="M7.92 0C9.25 0 10.34 0.01 11.18 0.04C11.9 0.07 12.54 0.2 13.1 0.42C13.65 0.63 14.11 0.93 14.51 1.32C14.91 1.72 15.21 2.19 15.42 2.73C15.64 3.29 15.76 3.93 15.79 4.65C15.82 5.5 15.84 6.58 15.84 7.92C15.84 9.25 15.82 10.34 15.79 11.18C15.76 11.9 15.64 12.54 15.42 13.1C15.21 13.65 14.91 14.11 14.51 14.51C14.11 14.91 13.65 15.21 13.1 15.42C12.54 15.64 11.9 15.76 11.18 15.79C10.34 15.82 9.25 15.84 7.92 15.84C6.58 15.84 5.5 15.82 4.65 15.79C3.93 15.76 3.29 15.64 2.73 15.42C2.19 15.21 1.72 14.91 1.32 14.51C0.93 14.11 0.63 13.65 0.42 13.1C0.2 12.54 0.07 11.9 0.04 11.18C0.01 10.34 0 9.25 0 7.92C0 6.58 0.01 5.5 0.04 4.65C0.07 3.93 0.2 3.29 0.42 2.73C0.63 2.19 0.93 1.72 1.32 1.32C1.72 0.93 2.19 0.63 2.73 0.42C3.29 0.2 3.93 0.07 4.65 0.04C5.5 0.01 6.58 0 7.92 0ZM7.92 1.03C6.53 1.03 5.4 1.04 4.53 1.07C3.96 1.09 3.44 1.19 2.96 1.37C2.21 1.68 1.68 2.21 1.37 2.96C1.19 3.44 1.09 3.96 1.07 4.53C1.04 5.4 1.03 6.53 1.03 7.92C1.03 9.3 1.04 10.43 1.07 11.31C1.09 11.87 1.19 12.39 1.37 12.87C1.68 13.62 2.21 14.15 2.96 14.46C3.44 14.64 3.96 14.74 4.53 14.76C5.4 14.79 6.53 14.81 7.92 14.81C9.3 14.81 10.43 14.79 11.31 14.76C11.87 14.74 12.39 14.64 12.87 14.46C13.62 14.15 14.15 13.62 14.46 12.87C14.64 12.39 14.74 11.87 14.76 11.31C14.79 10.43 14.81 9.3 14.81 7.92C14.81 6.53 14.79 5.4 14.76 4.53C14.74 3.96 14.64 3.44 14.46 2.96C14.15 2.21 13.62 1.68 12.87 1.37C12.39 1.19 11.87 1.09 11.31 1.07C10.43 1.04 9.3 1.03 7.92 1.03ZM7.92 11.09C8.79 11.09 9.54 10.78 10.16 10.16C10.78 9.54 11.09 8.79 11.09 7.92C11.09 7.04 10.78 6.29 10.16 5.67C9.54 5.05 8.79 4.75 7.92 4.75C7.04 4.75 6.29 5.05 5.67 5.67C5.05 6.29 4.75 7.04 4.75 7.92C4.75 8.79 5.05 9.54 5.67 10.16C6.29 10.78 7.04 11.09 7.92 11.09ZM7.92 3.85C9.04 3.85 10 4.25 10.79 5.04C11.58 5.83 11.98 6.79 11.98 7.92C11.98 9.04 11.58 10 10.79 10.79C10 11.58 9.04 11.98 7.92 11.98C6.79 11.98 5.83 11.58 5.04 10.79C4.25 10 3.85 9.04 3.85 7.92C3.85 6.79 4.25 5.83 5.04 5.04C5.83 4.25 6.79 3.85 7.92 3.85ZM13.1 3.7C13.1 3.96 13.01 4.18 12.82 4.36C12.64 4.54 12.41 4.64 12.14 4.64C11.88 4.64 11.65 4.54 11.47 4.36C11.29 4.18 11.2 3.96 11.2 3.7C11.2 3.43 11.29 3.2 11.47 3.01C11.65 2.82 11.88 2.73 12.14 2.73C12.4 2.73 12.62 2.83 12.82 3.02C13.01 3.21 13.1 3.44 13.1 3.7Z" fill="#666666" fill-opacity="1.000000" fill-rule="nonzero"/>
</svg>
