<svg width="16.000000" height="16.000000" viewBox="0 0 16 16" fill="none" xmlns="http://www.w3.org/2000/svg" xmlns:xlink="http://www.w3.org/1999/xlink">
	<desc>
			Created with Pixso.
	</desc>
	<defs/>
	<path id="icon_telegram" d="M8 0C3.58 0 0 3.58 0 8C0 12.41 3.58 16 8 16C12.41 16 16 12.41 16 8C16 3.58 12.41 0 8 0ZM8 0.69C12.03 0.69 15.3 3.96 15.3 8C15.3 12.03 12.03 15.3 8 15.3C3.96 15.3 0.69 12.03 0.69 8C0.69 3.96 3.96 0.69 8 0.69ZM11.16 4.18C10.92 4.18 10.65 4.24 10.34 4.35C9.85 4.52 4.14 6.95 3.49 7.22C3.12 7.38 2.43 7.68 2.43 8.38C2.43 8.84 2.7 9.17 3.24 9.36C3.52 9.47 4.21 9.67 4.61 9.78C4.77 9.83 4.95 9.85 5.14 9.85C5.5 9.85 5.86 9.76 6.14 9.61C6.14 9.66 6.14 9.72 6.15 9.78C6.19 10.15 6.42 10.49 6.75 10.7C6.97 10.84 8.75 12.03 9.02 12.22C9.39 12.49 9.81 12.63 10.22 12.63C10.99 12.63 11.26 11.83 11.38 11.44C11.56 10.88 12.25 6.32 12.33 5.51C12.38 4.96 12.15 4.51 11.71 4.3C11.55 4.22 11.36 4.18 11.16 4.18ZM11.16 4.88C11.25 4.88 11.34 4.89 11.41 4.93C11.57 5.01 11.66 5.18 11.63 5.45C11.55 6.33 10.87 10.78 10.72 11.23C10.6 11.61 10.46 11.94 10.22 11.94C9.97 11.94 9.69 11.85 9.42 11.66C9.15 11.47 7.37 10.27 7.12 10.11C6.9 9.98 6.67 9.63 7 9.3C7.26 9.03 9.29 7.07 9.46 6.89C9.59 6.77 9.53 6.61 9.4 6.61C9.36 6.61 9.31 6.63 9.25 6.67C9.04 6.85 6.09 8.82 5.84 8.98C5.67 9.08 5.41 9.16 5.14 9.16C5.02 9.16 4.9 9.14 4.79 9.11C4.4 9 3.73 8.8 3.47 8.71C3.22 8.62 3.12 8.53 3.12 8.38C3.12 8.16 3.44 8 3.76 7.86C4.11 7.72 10.1 5.17 10.57 5C10.79 4.92 10.99 4.88 11.16 4.88Z" fill="#666666" fill-opacity="1.000000" fill-rule="nonzero"/>
</svg>
